<svg width="1024" height="753" viewBox="0 0 1024 753" fill="none" xmlns="http://www.w3.org/2000/svg">
<g opacity="0.2" filter="url(#filter0_f_175_198)">
<ellipse cx="697.5" cy="458" rx="670.5" ry="350" fill="#B3A659"/>
</g>
<path d="M218.035 694C219.53 694 220.662 694.63 221.431 695.891C222.213 697.138 222.605 698.953 222.605 701.336C222.605 703.719 222.213 705.541 221.431 706.802C220.662 708.063 219.53 708.693 218.035 708.693C216.554 708.693 215.422 708.063 214.639 706.802C213.856 705.541 213.465 703.719 213.465 701.336C213.465 698.967 213.856 697.152 214.639 695.891C215.422 694.63 216.554 694 218.035 694ZM214.953 701.336C214.953 703.026 215.107 704.35 215.415 705.306L220.068 696.099C219.579 695.448 218.901 695.122 218.035 695.122C217.071 695.122 216.316 695.635 215.771 696.66C215.226 697.672 214.953 699.23 214.953 701.336ZM218.035 707.55C219.013 707.55 219.775 707.044 220.32 706.033C220.865 705.008 221.137 703.442 221.137 701.336C221.137 699.549 220.963 698.163 220.613 697.18L215.96 706.469C216.463 707.19 217.154 707.55 218.035 707.55Z" fill="url(#paint0_linear_175_198)" fill-opacity="0.6"/>
<path d="M219.293 731.135H222.374V732.236H214.387V731.135H217.951V719.455L214.555 721.471L213.968 720.536L218.161 717.959H219.293V731.135Z" fill="url(#paint1_linear_175_198)" fill-opacity="0.6"/>
<path d="M218.035 741.502C219.53 741.502 220.662 742.133 221.431 743.393C222.213 744.64 222.605 746.455 222.605 748.838C222.605 751.221 222.213 753.043 221.431 754.304C220.662 755.565 219.53 756.195 218.035 756.195C216.554 756.195 215.422 755.565 214.639 754.304C213.856 753.043 213.465 751.221 213.465 748.838C213.465 746.469 213.856 744.654 214.639 743.393C215.422 742.133 216.554 741.502 218.035 741.502ZM214.953 748.838C214.953 750.529 215.107 751.852 215.415 752.808L220.068 743.601C219.579 742.95 218.901 742.624 218.035 742.624C217.071 742.624 216.316 743.137 215.771 744.162C215.226 745.174 214.953 746.732 214.953 748.838ZM218.035 755.052C219.013 755.052 219.775 754.546 220.32 753.535C220.865 752.51 221.137 750.944 221.137 748.838C221.137 747.051 220.963 745.665 220.613 744.682L215.96 753.971C216.463 754.692 217.154 755.052 218.035 755.052Z" fill="url(#paint2_linear_175_198)" fill-opacity="0.6"/>
<path d="M219.293 778.637H222.374V779.738H214.387V778.637H217.951V766.957L214.555 768.973L213.968 768.038L218.161 765.461H219.293V778.637Z" fill="url(#paint3_linear_175_198)" fill-opacity="0.6"/>
<path d="M219.293 802.388H222.374V803.489H214.387V802.388H217.951V790.708L214.555 792.724L213.968 791.789L218.161 789.212H219.293V802.388Z" fill="url(#paint4_linear_175_198)" fill-opacity="0.6"/>
<path d="M218.035 812.755C219.53 812.755 220.662 813.386 221.431 814.646C222.213 815.893 222.605 817.708 222.605 820.091C222.605 822.474 222.213 824.296 221.431 825.557C220.662 826.818 219.53 827.448 218.035 827.448C216.554 827.448 215.422 826.818 214.639 825.557C213.856 824.296 213.465 822.474 213.465 820.091C213.465 817.722 213.856 815.907 214.639 814.646C215.422 813.386 216.554 812.755 218.035 812.755ZM214.953 820.091C214.953 821.782 215.107 823.105 215.415 824.061L220.068 814.854C219.579 814.203 218.901 813.878 218.035 813.878C217.071 813.878 216.316 814.39 215.771 815.415C215.226 816.427 214.953 817.985 214.953 820.091ZM218.035 826.305C219.013 826.305 219.775 825.8 220.32 824.788C220.865 823.763 221.137 822.197 221.137 820.091C221.137 818.304 220.963 816.919 220.613 815.935L215.96 825.225C216.463 825.945 217.154 826.305 218.035 826.305Z" fill="url(#paint5_linear_175_198)" fill-opacity="0.6"/>
<path d="M219.293 849.89H222.374V850.992H214.387V849.89H217.951V838.21L214.555 840.226L213.968 839.291L218.161 836.714H219.293V849.89Z" fill="url(#paint6_linear_175_198)" fill-opacity="0.6"/>
<path d="M218.035 860.257C219.53 860.257 220.662 860.888 221.431 862.149C222.213 863.396 222.605 865.211 222.605 867.594C222.605 869.977 222.213 871.798 221.431 873.059C220.662 874.32 219.53 874.95 218.035 874.95C216.554 874.95 215.422 874.32 214.639 873.059C213.856 871.798 213.465 869.977 213.465 867.594C213.465 865.224 213.856 863.409 214.639 862.149C215.422 860.888 216.554 860.257 218.035 860.257ZM214.953 867.594C214.953 869.284 215.107 870.607 215.415 871.563L220.068 862.356C219.579 861.705 218.901 861.38 218.035 861.38C217.071 861.38 216.316 861.892 215.771 862.918C215.226 863.929 214.953 865.488 214.953 867.594ZM218.035 873.807C219.013 873.807 219.775 873.302 220.32 872.29C220.865 871.265 221.137 869.699 221.137 867.594C221.137 865.806 220.963 864.421 220.613 863.437L215.96 872.727C216.463 873.447 217.154 873.807 218.035 873.807Z" fill="url(#paint7_linear_175_198)" fill-opacity="0.6"/>
<path d="M218.035 884.008C219.53 884.008 220.662 884.639 221.431 885.9C222.213 887.147 222.605 888.962 222.605 891.345C222.605 893.728 222.213 895.549 221.431 896.81C220.662 898.071 219.53 898.701 218.035 898.701C216.554 898.701 215.422 898.071 214.639 896.81C213.856 895.549 213.465 893.728 213.465 891.345C213.465 888.975 213.856 887.16 214.639 885.9C215.422 884.639 216.554 884.008 218.035 884.008ZM214.953 891.345C214.953 893.035 215.107 894.358 215.415 895.314L220.068 886.107C219.579 885.456 218.901 885.131 218.035 885.131C217.071 885.131 216.316 885.643 215.771 886.669C215.226 887.68 214.953 889.239 214.953 891.345ZM218.035 897.558C219.013 897.558 219.775 897.053 220.32 896.041C220.865 895.016 221.137 893.451 221.137 891.345C221.137 889.557 220.963 888.172 220.613 887.188L215.96 896.478C216.463 897.198 217.154 897.558 218.035 897.558Z" fill="url(#paint8_linear_175_198)" fill-opacity="0.6"/>
<path d="M219.293 921.143H222.374V922.245H214.387V921.143H217.951V909.464L214.555 911.48L213.968 910.544L218.161 907.967H219.293V921.143Z" fill="url(#paint9_linear_175_198)" fill-opacity="0.6"/>
<path d="M218.035 931.511C219.53 931.511 220.662 932.141 221.431 933.402C222.213 934.649 222.605 936.464 222.605 938.847C222.605 941.23 222.213 943.052 221.431 944.312C220.662 945.573 219.53 946.204 218.035 946.204C216.554 946.204 215.422 945.573 214.639 944.312C213.856 943.052 213.465 941.23 213.465 938.847C213.465 936.478 213.856 934.663 214.639 933.402C215.422 932.141 216.554 931.511 218.035 931.511ZM214.953 938.847C214.953 940.537 215.107 941.86 215.415 942.816L220.068 933.61C219.579 932.958 218.901 932.633 218.035 932.633C217.071 932.633 216.316 933.145 215.771 934.171C215.226 935.182 214.953 936.741 214.953 938.847ZM218.035 945.061C219.013 945.061 219.775 944.555 220.32 943.543C220.865 942.518 221.137 940.953 221.137 938.847C221.137 937.059 220.963 935.674 220.613 934.69L215.96 943.98C216.463 944.7 217.154 945.061 218.035 945.061Z" fill="url(#paint10_linear_175_198)" fill-opacity="0.6"/>
<path d="M219.293 968.645H222.374V969.747H214.387V968.645H217.951V956.966L214.555 958.982L213.968 958.046L218.161 955.469H219.293V968.645Z" fill="url(#paint11_linear_175_198)" fill-opacity="0.6"/>
<path d="M219.293 992.396H222.374V993.498H214.387V992.396H217.951V980.717L214.555 982.733L213.968 981.798L218.161 979.221H219.293V992.396Z" fill="url(#paint12_linear_175_198)" fill-opacity="0.6"/>
<path d="M256.965 741.502C258.46 741.502 259.592 742.133 260.361 743.393C261.144 744.64 261.535 746.455 261.535 748.838C261.535 751.221 261.144 753.043 260.361 754.304C259.592 755.565 258.46 756.195 256.965 756.195C255.484 756.195 254.352 755.565 253.569 754.304C252.787 753.043 252.395 751.221 252.395 748.838C252.395 746.469 252.787 744.654 253.569 743.393C254.352 742.133 255.484 741.502 256.965 741.502ZM253.884 748.838C253.884 750.529 254.037 751.852 254.345 752.808L258.998 743.601C258.509 742.95 257.832 742.624 256.965 742.624C256.001 742.624 255.246 743.137 254.701 744.162C254.156 745.174 253.884 746.732 253.884 748.838ZM256.965 755.052C257.943 755.052 258.705 754.546 259.25 753.535C259.795 752.51 260.068 750.944 260.068 748.838C260.068 747.051 259.893 745.665 259.543 744.682L254.89 753.971C255.393 754.692 256.085 755.052 256.965 755.052Z" fill="url(#paint13_linear_175_198)" fill-opacity="0.6"/>
<path d="M258.223 778.637H261.304V779.738H253.318V778.637H256.881V766.957L253.485 768.973L252.898 768.038L257.091 765.461H258.223V778.637Z" fill="url(#paint14_linear_175_198)" fill-opacity="0.6"/>
<path d="M256.965 789.004C258.46 789.004 259.592 789.635 260.361 790.895C261.144 792.142 261.535 793.957 261.535 796.34C261.535 798.723 261.144 800.545 260.361 801.806C259.592 803.067 258.46 803.697 256.965 803.697C255.484 803.697 254.352 803.067 253.569 801.806C252.787 800.545 252.395 798.723 252.395 796.34C252.395 793.971 252.787 792.156 253.569 790.895C254.352 789.635 255.484 789.004 256.965 789.004ZM253.884 796.34C253.884 798.031 254.037 799.354 254.345 800.31L258.998 791.103C258.509 790.452 257.832 790.126 256.965 790.126C256.001 790.126 255.246 790.639 254.701 791.664C254.156 792.676 253.884 794.234 253.884 796.34ZM256.965 802.554C257.943 802.554 258.705 802.049 259.25 801.037C259.795 800.012 260.068 798.446 260.068 796.34C260.068 794.553 259.893 793.168 259.543 792.184L254.89 801.474C255.393 802.194 256.085 802.554 256.965 802.554Z" fill="url(#paint15_linear_175_198)" fill-opacity="0.6"/>
<path d="M256.965 812.755C258.46 812.755 259.592 813.386 260.361 814.646C261.144 815.893 261.535 817.708 261.535 820.091C261.535 822.474 261.144 824.296 260.361 825.557C259.592 826.818 258.46 827.448 256.965 827.448C255.484 827.448 254.352 826.818 253.569 825.557C252.787 824.296 252.395 822.474 252.395 820.091C252.395 817.722 252.787 815.907 253.569 814.646C254.352 813.386 255.484 812.755 256.965 812.755ZM253.884 820.091C253.884 821.782 254.037 823.105 254.345 824.061L258.998 814.854C258.509 814.203 257.832 813.878 256.965 813.878C256.001 813.878 255.246 814.39 254.701 815.415C254.156 816.427 253.884 817.985 253.884 820.091ZM256.965 826.305C257.943 826.305 258.705 825.8 259.25 824.788C259.795 823.763 260.068 822.197 260.068 820.091C260.068 818.304 259.893 816.919 259.543 815.935L254.89 825.225C255.393 825.945 256.085 826.305 256.965 826.305Z" fill="url(#paint16_linear_175_198)" fill-opacity="0.6"/>
<path d="M258.223 849.89H261.304V850.992H253.318V849.89H256.881V838.21L253.485 840.226L252.898 839.291L257.091 836.714H258.223V849.89Z" fill="url(#paint17_linear_175_198)" fill-opacity="0.6"/>
<path d="M256.965 860.257C258.46 860.257 259.592 860.888 260.361 862.149C261.144 863.396 261.535 865.211 261.535 867.594C261.535 869.977 261.144 871.798 260.361 873.059C259.592 874.32 258.46 874.95 256.965 874.95C255.484 874.95 254.352 874.32 253.569 873.059C252.787 871.798 252.395 869.977 252.395 867.594C252.395 865.224 252.787 863.409 253.569 862.149C254.352 860.888 255.484 860.257 256.965 860.257ZM253.884 867.594C253.884 869.284 254.037 870.607 254.345 871.563L258.998 862.356C258.509 861.705 257.832 861.38 256.965 861.38C256.001 861.38 255.246 861.892 254.701 862.918C254.156 863.929 253.884 865.488 253.884 867.594ZM256.965 873.807C257.943 873.807 258.705 873.302 259.25 872.29C259.795 871.265 260.068 869.699 260.068 867.594C260.068 865.806 259.893 864.421 259.543 863.437L254.89 872.727C255.393 873.447 256.085 873.807 256.965 873.807Z" fill="url(#paint18_linear_175_198)" fill-opacity="0.6"/>
<path d="M258.223 897.392H261.304V898.494H253.318V897.392H256.881V885.713L253.485 887.728L252.898 886.793L257.091 884.216H258.223V897.392Z" fill="url(#paint19_linear_175_198)" fill-opacity="0.6"/>
<path d="M256.965 907.76C258.46 907.76 259.592 908.39 260.361 909.651C261.144 910.898 261.535 912.713 261.535 915.096C261.535 917.479 261.144 919.301 260.361 920.561C259.592 921.822 258.46 922.453 256.965 922.453C255.484 922.453 254.352 921.822 253.569 920.561C252.787 919.301 252.395 917.479 252.395 915.096C252.395 912.726 252.787 910.911 253.569 909.651C254.352 908.39 255.484 907.76 256.965 907.76ZM253.884 915.096C253.884 916.786 254.037 918.109 254.345 919.065L258.998 909.859C258.509 909.207 257.832 908.882 256.965 908.882C256.001 908.882 255.246 909.394 254.701 910.42C254.156 911.431 253.884 912.99 253.884 915.096ZM256.965 921.31C257.943 921.31 258.705 920.804 259.25 919.792C259.795 918.767 260.068 917.202 260.068 915.096C260.068 913.308 259.893 911.923 259.543 910.939L254.89 920.229C255.393 920.949 256.085 921.31 256.965 921.31Z" fill="url(#paint20_linear_175_198)" fill-opacity="0.6"/>
<path d="M256.965 931.511C258.46 931.511 259.592 932.141 260.361 933.402C261.144 934.649 261.535 936.464 261.535 938.847C261.535 941.23 261.144 943.052 260.361 944.312C259.592 945.573 258.46 946.204 256.965 946.204C255.484 946.204 254.352 945.573 253.569 944.312C252.787 943.052 252.395 941.23 252.395 938.847C252.395 936.478 252.787 934.663 253.569 933.402C254.352 932.141 255.484 931.511 256.965 931.511ZM253.884 938.847C253.884 940.537 254.037 941.86 254.345 942.816L258.998 933.61C258.509 932.958 257.832 932.633 256.965 932.633C256.001 932.633 255.246 933.145 254.701 934.171C254.156 935.182 253.884 936.741 253.884 938.847ZM256.965 945.061C257.943 945.061 258.705 944.555 259.25 943.543C259.795 942.518 260.068 940.953 260.068 938.847C260.068 937.059 259.893 935.674 259.543 934.69L254.89 943.98C255.393 944.7 256.085 945.061 256.965 945.061Z" fill="url(#paint21_linear_175_198)" fill-opacity="0.6"/>
<path d="M258.223 968.645H261.304V969.747H253.318V968.645H256.881V956.966L253.485 958.982L252.898 958.046L257.091 955.469H258.223V968.645Z" fill="url(#paint22_linear_175_198)" fill-opacity="0.6"/>
<path d="M256.965 979.013C258.46 979.013 259.592 979.643 260.361 980.904C261.144 982.151 261.535 983.966 261.535 986.349C261.535 988.732 261.144 990.554 260.361 991.815C259.592 993.075 258.46 993.706 256.965 993.706C255.484 993.706 254.352 993.075 253.569 991.815C252.787 990.554 252.395 988.732 252.395 986.349C252.395 983.98 252.787 982.165 253.569 980.904C254.352 979.643 255.484 979.013 256.965 979.013ZM253.884 986.349C253.884 988.039 254.037 989.362 254.345 990.318L258.998 981.112C258.509 980.461 257.832 980.135 256.965 980.135C256.001 980.135 255.246 980.648 254.701 981.673C254.156 982.684 253.884 984.243 253.884 986.349ZM256.965 992.563C257.943 992.563 258.705 992.057 259.25 991.046C259.795 990.02 260.068 988.455 260.068 986.349C260.068 984.562 259.893 983.176 259.543 982.192L254.89 991.482C255.393 992.202 256.085 992.563 256.965 992.563Z" fill="url(#paint23_linear_175_198)" fill-opacity="0.6"/>
<path d="M258.223 1016.15H261.304V1017.25H253.318V1016.15H256.881V1004.47L253.485 1006.48L252.898 1005.55L257.091 1002.97H258.223V1016.15Z" fill="url(#paint24_linear_175_198)" fill-opacity="0.6"/>
<path d="M258.223 1039.9H261.304V1041H253.318V1039.9H256.881V1028.22L253.485 1030.23L252.898 1029.3L257.091 1026.72H258.223V1039.9Z" fill="url(#paint25_linear_175_198)" fill-opacity="0.6"/>
<path d="M198.57 765.253C200.065 765.253 201.197 765.884 201.966 767.144C202.748 768.391 203.14 770.206 203.14 772.589C203.14 774.972 202.748 776.794 201.966 778.055C201.197 779.316 200.065 779.946 198.57 779.946C197.088 779.946 195.956 779.316 195.174 778.055C194.391 776.794 194 774.972 194 772.589C194 770.22 194.391 768.405 195.174 767.144C195.956 765.884 197.088 765.253 198.57 765.253ZM195.488 772.589C195.488 774.28 195.642 775.603 195.95 776.559L200.603 767.352C200.114 766.701 199.436 766.375 198.57 766.375C197.606 766.375 196.851 766.888 196.306 767.913C195.761 768.925 195.488 770.483 195.488 772.589ZM198.57 778.803C199.548 778.803 200.31 778.297 200.855 777.286C201.4 776.261 201.672 774.695 201.672 772.589C201.672 770.802 201.498 769.417 201.148 768.433L196.495 777.722C196.998 778.443 197.689 778.803 198.57 778.803Z" fill="url(#paint26_linear_175_198)" fill-opacity="0.6"/>
<path d="M198.57 789.004C200.065 789.004 201.197 789.635 201.966 790.895C202.748 792.142 203.14 793.957 203.14 796.34C203.14 798.723 202.748 800.545 201.966 801.806C201.197 803.067 200.065 803.697 198.57 803.697C197.088 803.697 195.956 803.067 195.174 801.806C194.391 800.545 194 798.723 194 796.34C194 793.971 194.391 792.156 195.174 790.895C195.956 789.635 197.088 789.004 198.57 789.004ZM195.488 796.34C195.488 798.031 195.642 799.354 195.95 800.31L200.603 791.103C200.114 790.452 199.436 790.126 198.57 790.126C197.606 790.126 196.851 790.639 196.306 791.664C195.761 792.676 195.488 794.234 195.488 796.34ZM198.57 802.554C199.548 802.554 200.31 802.049 200.855 801.037C201.4 800.012 201.672 798.446 201.672 796.34C201.672 794.553 201.498 793.168 201.148 792.184L196.495 801.474C196.998 802.194 197.689 802.554 198.57 802.554Z" fill="url(#paint27_linear_175_198)" fill-opacity="0.6"/>
<path d="M199.828 826.139H202.909V827.24H194.922V826.139H198.486V814.459L195.09 816.475L194.503 815.54L198.696 812.963H199.828V826.139Z" fill="url(#paint28_linear_175_198)" fill-opacity="0.6"/>
<path d="M198.57 836.506C200.065 836.506 201.197 837.137 201.966 838.398C202.748 839.644 203.14 841.459 203.14 843.842C203.14 846.225 202.748 848.047 201.966 849.308C201.197 850.569 200.065 851.199 198.57 851.199C197.088 851.199 195.956 850.569 195.174 849.308C194.391 848.047 194 846.225 194 843.842C194 841.473 194.391 839.658 195.174 838.398C195.956 837.137 197.088 836.506 198.57 836.506ZM195.488 843.842C195.488 845.533 195.642 846.856 195.95 847.812L200.603 838.605C200.114 837.954 199.436 837.629 198.57 837.629C197.606 837.629 196.851 838.141 196.306 839.166C195.761 840.178 195.488 841.737 195.488 843.842ZM198.57 850.056C199.548 850.056 200.31 849.551 200.855 848.539C201.4 847.514 201.672 845.948 201.672 843.842C201.672 842.055 201.498 840.67 201.148 839.686L196.495 848.976C196.998 849.696 197.689 850.056 198.57 850.056Z" fill="url(#paint29_linear_175_198)" fill-opacity="0.6"/>
<path d="M199.828 873.641H202.909V874.743H194.922V873.641H198.486V861.962L195.09 863.977L194.503 863.042L198.696 860.465H199.828V873.641Z" fill="url(#paint30_linear_175_198)" fill-opacity="0.6"/>
<path d="M199.828 897.392H202.909V898.494H194.922V897.392H198.486V885.713L195.09 887.728L194.503 886.793L198.696 884.216H199.828V897.392Z" fill="url(#paint31_linear_175_198)" fill-opacity="0.6"/>
<path d="M238.758 731.135H241.839V732.236H233.853V731.135H237.416V719.455L234.02 721.471L233.433 720.536L237.626 717.959H238.758V731.135Z" fill="url(#paint32_linear_175_198)" fill-opacity="0.6"/>
<path d="M237.5 741.502C238.995 741.502 240.127 742.133 240.896 743.393C241.679 744.64 242.07 746.455 242.07 748.838C242.07 751.221 241.679 753.043 240.896 754.304C240.127 755.565 238.995 756.195 237.5 756.195C236.019 756.195 234.887 755.565 234.104 754.304C233.321 753.043 232.93 751.221 232.93 748.838C232.93 746.469 233.321 744.654 234.104 743.393C234.887 742.133 236.019 741.502 237.5 741.502ZM234.419 748.838C234.419 750.529 234.572 751.852 234.88 752.808L239.533 743.601C239.044 742.95 238.366 742.624 237.5 742.624C236.536 742.624 235.781 743.137 235.236 744.162C234.691 745.174 234.419 746.732 234.419 748.838ZM237.5 755.052C238.478 755.052 239.24 754.546 239.785 753.535C240.33 752.51 240.602 750.944 240.602 748.838C240.602 747.051 240.428 745.665 240.078 744.682L235.425 753.971C235.928 754.692 236.62 755.052 237.5 755.052Z" fill="url(#paint33_linear_175_198)" fill-opacity="0.6"/>
<path d="M238.758 778.637H241.839V779.738H233.853V778.637H237.416V766.957L234.02 768.973L233.433 768.038L237.626 765.461H238.758V778.637Z" fill="url(#paint34_linear_175_198)" fill-opacity="0.6"/>
<path d="M238.758 802.388H241.839V803.489H233.853V802.388H237.416V790.708L234.02 792.724L233.433 791.789L237.626 789.212H238.758V802.388Z" fill="url(#paint35_linear_175_198)" fill-opacity="0.6"/>
<path d="M237.5 812.755C238.995 812.755 240.127 813.386 240.896 814.646C241.679 815.893 242.07 817.708 242.07 820.091C242.07 822.474 241.679 824.296 240.896 825.557C240.127 826.818 238.995 827.448 237.5 827.448C236.019 827.448 234.887 826.818 234.104 825.557C233.321 824.296 232.93 822.474 232.93 820.091C232.93 817.722 233.321 815.907 234.104 814.646C234.887 813.386 236.019 812.755 237.5 812.755ZM234.419 820.091C234.419 821.782 234.572 823.105 234.88 824.061L239.533 814.854C239.044 814.203 238.366 813.878 237.5 813.878C236.536 813.878 235.781 814.39 235.236 815.415C234.691 816.427 234.419 817.985 234.419 820.091ZM237.5 826.305C238.478 826.305 239.24 825.8 239.785 824.788C240.33 823.763 240.602 822.197 240.602 820.091C240.602 818.304 240.428 816.919 240.078 815.935L235.425 825.225C235.928 825.945 236.62 826.305 237.5 826.305Z" fill="url(#paint36_linear_175_198)" fill-opacity="0.6"/>
<path d="M238.758 849.89H241.839V850.992H233.853V849.89H237.416V838.21L234.02 840.226L233.433 839.291L237.626 836.714H238.758V849.89Z" fill="url(#paint37_linear_175_198)" fill-opacity="0.6"/>
<path d="M238.758 873.641H241.839V874.743H233.853V873.641H237.416V861.962L234.02 863.977L233.433 863.042L237.626 860.465H238.758V873.641Z" fill="url(#paint38_linear_175_198)" fill-opacity="0.6"/>
<path d="M237.5 884.008C238.995 884.008 240.127 884.639 240.896 885.9C241.679 887.147 242.07 888.962 242.07 891.345C242.07 893.728 241.679 895.549 240.896 896.81C240.127 898.071 238.995 898.701 237.5 898.701C236.019 898.701 234.887 898.071 234.104 896.81C233.321 895.549 232.93 893.728 232.93 891.345C232.93 888.975 233.321 887.16 234.104 885.9C234.887 884.639 236.019 884.008 237.5 884.008ZM234.419 891.345C234.419 893.035 234.572 894.358 234.88 895.314L239.533 886.107C239.044 885.456 238.366 885.131 237.5 885.131C236.536 885.131 235.781 885.643 235.236 886.669C234.691 887.68 234.419 889.239 234.419 891.345ZM237.5 897.558C238.478 897.558 239.24 897.053 239.785 896.041C240.33 895.016 240.602 893.451 240.602 891.345C240.602 889.557 240.428 888.172 240.078 887.188L235.425 896.478C235.928 897.198 236.62 897.558 237.5 897.558Z" fill="url(#paint39_linear_175_198)" fill-opacity="0.6"/>
<path d="M238.758 921.143H241.839V922.245H233.853V921.143H237.416V909.464L234.02 911.48L233.433 910.544L237.626 907.967H238.758V921.143Z" fill="url(#paint40_linear_175_198)" fill-opacity="0.6"/>
<path d="M237.5 931.511C238.995 931.511 240.127 932.141 240.896 933.402C241.679 934.649 242.07 936.464 242.07 938.847C242.07 941.23 241.679 943.052 240.896 944.312C240.127 945.573 238.995 946.204 237.5 946.204C236.019 946.204 234.887 945.573 234.104 944.312C233.321 943.052 232.93 941.23 232.93 938.847C232.93 936.478 233.321 934.663 234.104 933.402C234.887 932.141 236.019 931.511 237.5 931.511ZM234.419 938.847C234.419 940.537 234.572 941.86 234.88 942.816L239.533 933.61C239.044 932.958 238.366 932.633 237.5 932.633C236.536 932.633 235.781 933.145 235.236 934.171C234.691 935.182 234.419 936.741 234.419 938.847ZM237.5 945.061C238.478 945.061 239.24 944.555 239.785 943.543C240.33 942.518 240.602 940.953 240.602 938.847C240.602 937.059 240.428 935.674 240.078 934.69L235.425 943.98C235.928 944.7 236.62 945.061 237.5 945.061Z" fill="url(#paint41_linear_175_198)" fill-opacity="0.6"/>
<path d="M276.43 717.751C277.926 717.751 279.057 718.381 279.826 719.642C280.609 720.889 281 722.704 281 725.087C281 727.47 280.609 729.292 279.826 730.553C279.057 731.814 277.926 732.444 276.43 732.444C274.949 732.444 273.817 731.814 273.034 730.553C272.252 729.292 271.86 727.47 271.86 725.087C271.86 722.718 272.252 720.903 273.034 719.642C273.817 718.381 274.949 717.751 276.43 717.751ZM273.349 725.087C273.349 726.777 273.502 728.101 273.81 729.057L278.464 719.85C277.974 719.199 277.297 718.873 276.43 718.873C275.466 718.873 274.711 719.386 274.166 720.411C273.621 721.423 273.349 722.981 273.349 725.087ZM276.43 731.301C277.408 731.301 278.17 730.795 278.715 729.784C279.26 728.759 279.533 727.193 279.533 725.087C279.533 723.3 279.358 721.914 279.009 720.931L274.355 730.22C274.858 730.941 275.55 731.301 276.43 731.301Z" fill="url(#paint42_linear_175_198)" fill-opacity="0.6"/>
<path d="M277.688 754.886H280.769V755.987H272.783V754.886H276.346V743.206L272.95 745.222L272.363 744.287L276.556 741.71H277.688V754.886Z" fill="url(#paint43_linear_175_198)" fill-opacity="0.6"/>
<path d="M277.688 778.637H280.769V779.738H272.783V778.637H276.346V766.957L272.95 768.973L272.363 768.038L276.556 765.461H277.688V778.637Z" fill="url(#paint44_linear_175_198)" fill-opacity="0.6"/>
<path d="M276.43 789.004C277.926 789.004 279.057 789.635 279.826 790.895C280.609 792.142 281 793.957 281 796.34C281 798.723 280.609 800.545 279.826 801.806C279.057 803.067 277.926 803.697 276.43 803.697C274.949 803.697 273.817 803.067 273.034 801.806C272.252 800.545 271.86 798.723 271.86 796.34C271.86 793.971 272.252 792.156 273.034 790.895C273.817 789.635 274.949 789.004 276.43 789.004ZM273.349 796.34C273.349 798.031 273.502 799.354 273.81 800.31L278.464 791.103C277.974 790.452 277.297 790.126 276.43 790.126C275.466 790.126 274.711 790.639 274.166 791.664C273.621 792.676 273.349 794.234 273.349 796.34ZM276.43 802.554C277.408 802.554 278.17 802.049 278.715 801.037C279.26 800.012 279.533 798.446 279.533 796.34C279.533 794.553 279.358 793.168 279.009 792.184L274.355 801.474C274.858 802.194 275.55 802.554 276.43 802.554Z" fill="url(#paint45_linear_175_198)" fill-opacity="0.6"/>
<path d="M276.43 812.755C277.926 812.755 279.057 813.386 279.826 814.646C280.609 815.893 281 817.708 281 820.091C281 822.474 280.609 824.296 279.826 825.557C279.057 826.818 277.926 827.448 276.43 827.448C274.949 827.448 273.817 826.818 273.034 825.557C272.252 824.296 271.86 822.474 271.86 820.091C271.86 817.722 272.252 815.907 273.034 814.646C273.817 813.386 274.949 812.755 276.43 812.755ZM273.349 820.091C273.349 821.782 273.502 823.105 273.81 824.061L278.464 814.854C277.974 814.203 277.297 813.878 276.43 813.878C275.466 813.878 274.711 814.39 274.166 815.415C273.621 816.427 273.349 817.985 273.349 820.091ZM276.43 826.305C277.408 826.305 278.17 825.8 278.715 824.788C279.26 823.763 279.533 822.197 279.533 820.091C279.533 818.304 279.358 816.919 279.009 815.935L274.355 825.225C274.858 825.945 275.55 826.305 276.43 826.305Z" fill="url(#paint46_linear_175_198)" fill-opacity="0.6"/>
<defs>
<filter id="filter0_f_175_198" x="-373.19" y="-292.19" width="2141.38" height="1500.38" filterUnits="userSpaceOnUse" color-interpolation-filters="sRGB">
<feFlood flood-opacity="0" result="BackgroundImageFix"/>
<feBlend mode="normal" in="SourceGraphic" in2="BackgroundImageFix" result="shape"/>
<feGaussianBlur stdDeviation="200.095" result="effect1_foregroundBlur_175_198"/>
</filter>
<linearGradient id="paint0_linear_175_198" x1="237.5" y1="694" x2="237.5" y2="1005.38" gradientUnits="userSpaceOnUse">
<stop stop-color="#F7DD43"/>
<stop offset="1" stop-color="#F7DD43" stop-opacity="0"/>
</linearGradient>
<linearGradient id="paint1_linear_175_198" x1="237.5" y1="694" x2="237.5" y2="1005.38" gradientUnits="userSpaceOnUse">
<stop stop-color="#F7DD43"/>
<stop offset="1" stop-color="#F7DD43" stop-opacity="0"/>
</linearGradient>
<linearGradient id="paint2_linear_175_198" x1="237.5" y1="694" x2="237.5" y2="1005.38" gradientUnits="userSpaceOnUse">
<stop stop-color="#F7DD43"/>
<stop offset="1" stop-color="#F7DD43" stop-opacity="0"/>
</linearGradient>
<linearGradient id="paint3_linear_175_198" x1="237.5" y1="694" x2="237.5" y2="1005.38" gradientUnits="userSpaceOnUse">
<stop stop-color="#F7DD43"/>
<stop offset="1" stop-color="#F7DD43" stop-opacity="0"/>
</linearGradient>
<linearGradient id="paint4_linear_175_198" x1="237.5" y1="694" x2="237.5" y2="1005.38" gradientUnits="userSpaceOnUse">
<stop stop-color="#F7DD43"/>
<stop offset="1" stop-color="#F7DD43" stop-opacity="0"/>
</linearGradient>
<linearGradient id="paint5_linear_175_198" x1="237.5" y1="694" x2="237.5" y2="1005.38" gradientUnits="userSpaceOnUse">
<stop stop-color="#F7DD43"/>
<stop offset="1" stop-color="#F7DD43" stop-opacity="0"/>
</linearGradient>
<linearGradient id="paint6_linear_175_198" x1="237.5" y1="694" x2="237.5" y2="1005.38" gradientUnits="userSpaceOnUse">
<stop stop-color="#F7DD43"/>
<stop offset="1" stop-color="#F7DD43" stop-opacity="0"/>
</linearGradient>
<linearGradient id="paint7_linear_175_198" x1="237.5" y1="694" x2="237.5" y2="1005.38" gradientUnits="userSpaceOnUse">
<stop stop-color="#F7DD43"/>
<stop offset="1" stop-color="#F7DD43" stop-opacity="0"/>
</linearGradient>
<linearGradient id="paint8_linear_175_198" x1="237.5" y1="694" x2="237.5" y2="1005.38" gradientUnits="userSpaceOnUse">
<stop stop-color="#F7DD43"/>
<stop offset="1" stop-color="#F7DD43" stop-opacity="0"/>
</linearGradient>
<linearGradient id="paint9_linear_175_198" x1="237.5" y1="694" x2="237.5" y2="1005.38" gradientUnits="userSpaceOnUse">
<stop stop-color="#F7DD43"/>
<stop offset="1" stop-color="#F7DD43" stop-opacity="0"/>
</linearGradient>
<linearGradient id="paint10_linear_175_198" x1="237.5" y1="694" x2="237.5" y2="1005.38" gradientUnits="userSpaceOnUse">
<stop stop-color="#F7DD43"/>
<stop offset="1" stop-color="#F7DD43" stop-opacity="0"/>
</linearGradient>
<linearGradient id="paint11_linear_175_198" x1="237.5" y1="694" x2="237.5" y2="1005.38" gradientUnits="userSpaceOnUse">
<stop stop-color="#F7DD43"/>
<stop offset="1" stop-color="#F7DD43" stop-opacity="0"/>
</linearGradient>
<linearGradient id="paint12_linear_175_198" x1="237.5" y1="694" x2="237.5" y2="1005.38" gradientUnits="userSpaceOnUse">
<stop stop-color="#F7DD43"/>
<stop offset="1" stop-color="#F7DD43" stop-opacity="0"/>
</linearGradient>
<linearGradient id="paint13_linear_175_198" x1="237.5" y1="694" x2="237.5" y2="1005.38" gradientUnits="userSpaceOnUse">
<stop stop-color="#F7DD43"/>
<stop offset="1" stop-color="#F7DD43" stop-opacity="0"/>
</linearGradient>
<linearGradient id="paint14_linear_175_198" x1="237.5" y1="694" x2="237.5" y2="1005.38" gradientUnits="userSpaceOnUse">
<stop stop-color="#F7DD43"/>
<stop offset="1" stop-color="#F7DD43" stop-opacity="0"/>
</linearGradient>
<linearGradient id="paint15_linear_175_198" x1="237.5" y1="694" x2="237.5" y2="1005.38" gradientUnits="userSpaceOnUse">
<stop stop-color="#F7DD43"/>
<stop offset="1" stop-color="#F7DD43" stop-opacity="0"/>
</linearGradient>
<linearGradient id="paint16_linear_175_198" x1="237.5" y1="694" x2="237.5" y2="1005.38" gradientUnits="userSpaceOnUse">
<stop stop-color="#F7DD43"/>
<stop offset="1" stop-color="#F7DD43" stop-opacity="0"/>
</linearGradient>
<linearGradient id="paint17_linear_175_198" x1="237.5" y1="694" x2="237.5" y2="1005.38" gradientUnits="userSpaceOnUse">
<stop stop-color="#F7DD43"/>
<stop offset="1" stop-color="#F7DD43" stop-opacity="0"/>
</linearGradient>
<linearGradient id="paint18_linear_175_198" x1="237.5" y1="694" x2="237.5" y2="1005.38" gradientUnits="userSpaceOnUse">
<stop stop-color="#F7DD43"/>
<stop offset="1" stop-color="#F7DD43" stop-opacity="0"/>
</linearGradient>
<linearGradient id="paint19_linear_175_198" x1="237.5" y1="694" x2="237.5" y2="1005.38" gradientUnits="userSpaceOnUse">
<stop stop-color="#F7DD43"/>
<stop offset="1" stop-color="#F7DD43" stop-opacity="0"/>
</linearGradient>
<linearGradient id="paint20_linear_175_198" x1="237.5" y1="694" x2="237.5" y2="1005.38" gradientUnits="userSpaceOnUse">
<stop stop-color="#F7DD43"/>
<stop offset="1" stop-color="#F7DD43" stop-opacity="0"/>
</linearGradient>
<linearGradient id="paint21_linear_175_198" x1="237.5" y1="694" x2="237.5" y2="1005.38" gradientUnits="userSpaceOnUse">
<stop stop-color="#F7DD43"/>
<stop offset="1" stop-color="#F7DD43" stop-opacity="0"/>
</linearGradient>
<linearGradient id="paint22_linear_175_198" x1="237.5" y1="694" x2="237.5" y2="1005.38" gradientUnits="userSpaceOnUse">
<stop stop-color="#F7DD43"/>
<stop offset="1" stop-color="#F7DD43" stop-opacity="0"/>
</linearGradient>
<linearGradient id="paint23_linear_175_198" x1="237.5" y1="694" x2="237.5" y2="1005.38" gradientUnits="userSpaceOnUse">
<stop stop-color="#F7DD43"/>
<stop offset="1" stop-color="#F7DD43" stop-opacity="0"/>
</linearGradient>
<linearGradient id="paint24_linear_175_198" x1="237.5" y1="694" x2="237.5" y2="1005.38" gradientUnits="userSpaceOnUse">
<stop stop-color="#F7DD43"/>
<stop offset="1" stop-color="#F7DD43" stop-opacity="0"/>
</linearGradient>
<linearGradient id="paint25_linear_175_198" x1="237.5" y1="694" x2="237.5" y2="1005.38" gradientUnits="userSpaceOnUse">
<stop stop-color="#F7DD43"/>
<stop offset="1" stop-color="#F7DD43" stop-opacity="0"/>
</linearGradient>
<linearGradient id="paint26_linear_175_198" x1="237.5" y1="694" x2="237.5" y2="1005.38" gradientUnits="userSpaceOnUse">
<stop stop-color="#F7DD43"/>
<stop offset="1" stop-color="#F7DD43" stop-opacity="0"/>
</linearGradient>
<linearGradient id="paint27_linear_175_198" x1="237.5" y1="694" x2="237.5" y2="1005.38" gradientUnits="userSpaceOnUse">
<stop stop-color="#F7DD43"/>
<stop offset="1" stop-color="#F7DD43" stop-opacity="0"/>
</linearGradient>
<linearGradient id="paint28_linear_175_198" x1="237.5" y1="694" x2="237.5" y2="1005.38" gradientUnits="userSpaceOnUse">
<stop stop-color="#F7DD43"/>
<stop offset="1" stop-color="#F7DD43" stop-opacity="0"/>
</linearGradient>
<linearGradient id="paint29_linear_175_198" x1="237.5" y1="694" x2="237.5" y2="1005.38" gradientUnits="userSpaceOnUse">
<stop stop-color="#F7DD43"/>
<stop offset="1" stop-color="#F7DD43" stop-opacity="0"/>
</linearGradient>
<linearGradient id="paint30_linear_175_198" x1="237.5" y1="694" x2="237.5" y2="1005.38" gradientUnits="userSpaceOnUse">
<stop stop-color="#F7DD43"/>
<stop offset="1" stop-color="#F7DD43" stop-opacity="0"/>
</linearGradient>
<linearGradient id="paint31_linear_175_198" x1="237.5" y1="694" x2="237.5" y2="1005.38" gradientUnits="userSpaceOnUse">
<stop stop-color="#F7DD43"/>
<stop offset="1" stop-color="#F7DD43" stop-opacity="0"/>
</linearGradient>
<linearGradient id="paint32_linear_175_198" x1="237.5" y1="694" x2="237.5" y2="1005.38" gradientUnits="userSpaceOnUse">
<stop stop-color="#F7DD43"/>
<stop offset="1" stop-color="#F7DD43" stop-opacity="0"/>
</linearGradient>
<linearGradient id="paint33_linear_175_198" x1="237.5" y1="694" x2="237.5" y2="1005.38" gradientUnits="userSpaceOnUse">
<stop stop-color="#F7DD43"/>
<stop offset="1" stop-color="#F7DD43" stop-opacity="0"/>
</linearGradient>
<linearGradient id="paint34_linear_175_198" x1="237.5" y1="694" x2="237.5" y2="1005.38" gradientUnits="userSpaceOnUse">
<stop stop-color="#F7DD43"/>
<stop offset="1" stop-color="#F7DD43" stop-opacity="0"/>
</linearGradient>
<linearGradient id="paint35_linear_175_198" x1="237.5" y1="694" x2="237.5" y2="1005.38" gradientUnits="userSpaceOnUse">
<stop stop-color="#F7DD43"/>
<stop offset="1" stop-color="#F7DD43" stop-opacity="0"/>
</linearGradient>
<linearGradient id="paint36_linear_175_198" x1="237.5" y1="694" x2="237.5" y2="1005.38" gradientUnits="userSpaceOnUse">
<stop stop-color="#F7DD43"/>
<stop offset="1" stop-color="#F7DD43" stop-opacity="0"/>
</linearGradient>
<linearGradient id="paint37_linear_175_198" x1="237.5" y1="694" x2="237.5" y2="1005.38" gradientUnits="userSpaceOnUse">
<stop stop-color="#F7DD43"/>
<stop offset="1" stop-color="#F7DD43" stop-opacity="0"/>
</linearGradient>
<linearGradient id="paint38_linear_175_198" x1="237.5" y1="694" x2="237.5" y2="1005.38" gradientUnits="userSpaceOnUse">
<stop stop-color="#F7DD43"/>
<stop offset="1" stop-color="#F7DD43" stop-opacity="0"/>
</linearGradient>
<linearGradient id="paint39_linear_175_198" x1="237.5" y1="694" x2="237.5" y2="1005.38" gradientUnits="userSpaceOnUse">
<stop stop-color="#F7DD43"/>
<stop offset="1" stop-color="#F7DD43" stop-opacity="0"/>
</linearGradient>
<linearGradient id="paint40_linear_175_198" x1="237.5" y1="694" x2="237.5" y2="1005.38" gradientUnits="userSpaceOnUse">
<stop stop-color="#F7DD43"/>
<stop offset="1" stop-color="#F7DD43" stop-opacity="0"/>
</linearGradient>
<linearGradient id="paint41_linear_175_198" x1="237.5" y1="694" x2="237.5" y2="1005.38" gradientUnits="userSpaceOnUse">
<stop stop-color="#F7DD43"/>
<stop offset="1" stop-color="#F7DD43" stop-opacity="0"/>
</linearGradient>
<linearGradient id="paint42_linear_175_198" x1="237.5" y1="694" x2="237.5" y2="1005.38" gradientUnits="userSpaceOnUse">
<stop stop-color="#F7DD43"/>
<stop offset="1" stop-color="#F7DD43" stop-opacity="0"/>
</linearGradient>
<linearGradient id="paint43_linear_175_198" x1="237.5" y1="694" x2="237.5" y2="1005.38" gradientUnits="userSpaceOnUse">
<stop stop-color="#F7DD43"/>
<stop offset="1" stop-color="#F7DD43" stop-opacity="0"/>
</linearGradient>
<linearGradient id="paint44_linear_175_198" x1="237.5" y1="694" x2="237.5" y2="1005.38" gradientUnits="userSpaceOnUse">
<stop stop-color="#F7DD43"/>
<stop offset="1" stop-color="#F7DD43" stop-opacity="0"/>
</linearGradient>
<linearGradient id="paint45_linear_175_198" x1="237.5" y1="694" x2="237.5" y2="1005.38" gradientUnits="userSpaceOnUse">
<stop stop-color="#F7DD43"/>
<stop offset="1" stop-color="#F7DD43" stop-opacity="0"/>
</linearGradient>
<linearGradient id="paint46_linear_175_198" x1="237.5" y1="694" x2="237.5" y2="1005.38" gradientUnits="userSpaceOnUse">
<stop stop-color="#F7DD43"/>
<stop offset="1" stop-color="#F7DD43" stop-opacity="0"/>
</linearGradient>
</defs>
</svg>
